<?xml version="1.0" standalone="no"?>
<!DOCTYPE svg PUBLIC "-//W3C//DTD SVG 20010904//EN"
 "http://www.w3.org/TR/2001/REC-SVG-20010904/DTD/svg10.dtd">
<svg version="1.0" xmlns="http://www.w3.org/2000/svg"
 width="700.000000pt" height="700.000000pt" viewBox="0 0 700.000000 700.000000"
 preserveAspectRatio="xMidYMid meet">
<metadata>
Created by potrace 1.11, written by Peter Selinger 2001-2013
</metadata>
<g transform="translate(0.000000,700.000000) scale(0.100000,-0.100000)"
fill="#000000" stroke="none">
<path d="M584 6976 c-139 -36 -267 -110 -368 -212 -90 -91 -184 -271 -203
-390 -4 -27 -8 -1329 -8 -2894 l0 -2845 23 -75 c89 -282 309 -484 592 -545
100 -21 5664 -21 5763 0 304 66 542 304 602 604 14 67 15 409 13 2916 l-3
2840 -24 70 c-74 219 -213 382 -406 475 -44 22 -107 47 -140 57 -57 17 -201
18 -2905 20 l-2845 2 -91 -23z m4084 -3053 c0 -973 3 -1784 6 -1803 24 -130
69 -213 140 -255 50 -29 207 -72 274 -74 l22 -1 0 -226 0 -226 -117 6 c-65 3
-131 8 -148 11 -393 69 -562 186 -651 452 -53 158 -52 115 -53 2009 l-1 1760
212 48 c117 27 227 52 243 56 17 5 39 9 51 9 l21 1 1 -1767z m-1518 478 c41
-7 91 -14 110 -17 71 -9 106 -16 170 -31 36 -8 79 -18 95 -20 17 -3 32 -9 35
-13 5 -7 6 -469 1 -478 0 -1 -13 4 -28 11 -80 41 -351 115 -494 136 -63 9
-285 8 -324 -2 -20 -5 -92 -31 -168 -59 -21 -8 -43 -20 -49 -26 -7 -7 -17 -12
-23 -12 -20 0 -95 -71 -119 -113 -14 -23 -28 -64 -33 -92 -30 -178 41 -312
223 -421 64 -38 125 -64 499 -211 403 -159 576 -280 687 -483 25 -45 55 -128
63 -172 3 -12 9 -45 14 -73 16 -83 6 -299 -17 -387 -34 -125 -92 -227 -179
-311 -146 -141 -332 -222 -625 -271 -145 -24 -595 -25 -728 -2 -14 3 -42 7
-62 10 -67 10 -131 26 -245 62 -107 33 -113 36 -114 62 0 31 0 224 1 363 l0
96 98 -34 c294 -104 395 -124 652 -128 219 -4 325 7 435 42 178 57 256 148
261 303 5 200 -94 313 -408 464 -65 31 -121 56 -124 56 -3 0 -20 6 -37 14 -18
8 -99 42 -182 76 -290 119 -421 191 -517 284 -168 164 -230 321 -223 566 3
120 6 140 31 230 57 199 207 367 429 477 57 29 164 68 216 79 40 8 182 33 214
37 64 7 394 -1 465 -12z"/>
</g>
</svg>
